<svg width="100" height="18" viewBox="0 0 100 18" fill="none" xmlns="http://www.w3.org/2000/svg">
<path d="M9.98 14.52H4.74L3.9 17H0.32L5.4 2.96H9.36L14.44 17H10.82L9.98 14.52ZM9.1 11.88L7.36 6.74L5.64 11.88H9.1ZM15.3061 11.4C15.3061 10.2533 15.5194 9.24667 15.9461 8.38C16.3861 7.51333 16.9794 6.84667 17.7261 6.38C18.4728 5.91333 19.3061 5.68 20.2261 5.68C20.9594 5.68 21.6261 5.83333 22.2261 6.14C22.8394 6.44667 23.3194 6.86 23.6661 7.38V2.2H27.0861V17H23.6661V15.4C23.3461 15.9333 22.8861 16.36 22.2861 16.68C21.6994 17 21.0128 17.16 20.2261 17.16C19.3061 17.16 18.4728 16.9267 17.7261 16.46C16.9794 15.98 16.3861 15.3067 15.9461 14.44C15.5194 13.56 15.3061 12.5467 15.3061 11.4ZM23.6661 11.42C23.6661 10.5667 23.4261 9.89333 22.9461 9.4C22.4794 8.90667 21.9061 8.66 21.2261 8.66C20.5461 8.66 19.9661 8.90667 19.4861 9.4C19.0194 9.88 18.7861 10.5467 18.7861 11.4C18.7861 12.2533 19.0194 12.9333 19.4861 13.44C19.9661 13.9333 20.5461 14.18 21.2261 14.18C21.9061 14.18 22.4794 13.9333 22.9461 13.44C23.4261 12.9467 23.6661 12.2733 23.6661 11.42ZM43.8003 5.72C45.187 5.72 46.287 6.14 47.1003 6.98C47.927 7.82 48.3403 8.98667 48.3403 10.48V17H44.9403V10.94C44.9403 10.22 44.747 9.66667 44.3603 9.28C43.987 8.88 43.467 8.68 42.8003 8.68C42.1336 8.68 41.607 8.88 41.2203 9.28C40.847 9.66667 40.6603 10.22 40.6603 10.94V17H37.2603V10.94C37.2603 10.22 37.067 9.66667 36.6803 9.28C36.307 8.88 35.787 8.68 35.1203 8.68C34.4536 8.68 33.927 8.88 33.5403 9.28C33.167 9.66667 32.9803 10.22 32.9803 10.94V17H29.5603V5.84H32.9803V7.24C33.327 6.77333 33.7803 6.40667 34.3403 6.14C34.9003 5.86 35.5336 5.72 36.2403 5.72C37.0803 5.72 37.827 5.9 38.4803 6.26C39.147 6.62 39.667 7.13333 40.0403 7.8C40.427 7.18667 40.9536 6.68667 41.6203 6.3C42.287 5.91333 43.0136 5.72 43.8003 5.72ZM52.4522 4.68C51.8522 4.68 51.3589 4.50667 50.9722 4.16C50.5989 3.8 50.4122 3.36 50.4122 2.84C50.4122 2.30667 50.5989 1.86667 50.9722 1.52C51.3589 1.16 51.8522 0.979999 52.4522 0.979999C53.0389 0.979999 53.5189 1.16 53.8922 1.52C54.2789 1.86667 54.4722 2.30667 54.4722 2.84C54.4722 3.36 54.2789 3.8 53.8922 4.16C53.5189 4.50667 53.0389 4.68 52.4522 4.68ZM54.1522 5.84V17H50.7322V5.84H54.1522ZM63.4306 5.72C64.7373 5.72 65.7773 6.14667 66.5506 7C67.3373 7.84 67.7306 9 67.7306 10.48V17H64.3306V10.94C64.3306 10.1933 64.1373 9.61333 63.7506 9.2C63.364 8.78667 62.844 8.58 62.1906 8.58C61.5373 8.58 61.0173 8.78667 60.6306 9.2C60.244 9.61333 60.0506 10.1933 60.0506 10.94V17H56.6306V5.84H60.0506V7.32C60.3973 6.82667 60.864 6.44 61.4506 6.16C62.0373 5.86667 62.6973 5.72 63.4306 5.72ZM79.4072 7.04C79.4072 8.24 79.0139 9.20667 78.2272 9.94C77.4405 10.6733 76.2605 11.04 74.6872 11.04H71.8672V17H70.4672V3.02H74.6872C76.2472 3.02 77.4205 3.38667 78.2072 4.12C79.0072 4.85333 79.4072 5.82667 79.4072 7.04ZM74.6872 9.84C76.8739 9.84 77.9672 8.90667 77.9672 7.04C77.9672 6.10667 77.7072 5.4 77.1872 4.92C76.6672 4.44 75.8339 4.2 74.6872 4.2H71.8672V9.84H74.6872ZM83.1563 8.02C83.4629 7.34 83.9296 6.81333 84.5563 6.44C85.1963 6.06667 85.9763 5.88 86.8963 5.88V7.34H86.5163C85.5029 7.34 84.6896 7.61333 84.0763 8.16C83.4629 8.70667 83.1563 9.62 83.1563 10.9V17H81.7563V6.08H83.1563V8.02ZM93.7823 17.16C92.7557 17.16 91.829 16.9333 91.0023 16.48C90.189 16.0133 89.5423 15.36 89.0623 14.52C88.5957 13.6667 88.3623 12.6733 88.3623 11.54C88.3623 10.4067 88.6023 9.42 89.0823 8.58C89.5623 7.72667 90.2157 7.07333 91.0423 6.62C91.869 6.15333 92.7957 5.92 93.8223 5.92C94.849 5.92 95.7757 6.15333 96.6023 6.62C97.4423 7.07333 98.0957 7.72667 98.5623 8.58C99.0423 9.42 99.2823 10.4067 99.2823 11.54C99.2823 12.66 99.0423 13.6467 98.5623 14.5C98.0823 15.3533 97.4223 16.0133 96.5823 16.48C95.7423 16.9333 94.809 17.16 93.7823 17.16ZM93.7823 15.94C94.5023 15.94 95.169 15.78 95.7823 15.46C96.3957 15.1267 96.889 14.6333 97.2623 13.98C97.649 13.3133 97.8423 12.5 97.8423 11.54C97.8423 10.58 97.6557 9.77333 97.2823 9.12C96.909 8.45333 96.4157 7.96 95.8023 7.64C95.189 7.30667 94.5223 7.14 93.8023 7.14C93.0823 7.14 92.4157 7.30667 91.8023 7.64C91.189 7.96 90.6957 8.45333 90.3223 9.12C89.9623 9.77333 89.7823 10.58 89.7823 11.54C89.7823 12.5 89.9623 13.3133 90.3223 13.98C90.6957 14.6333 91.1823 15.1267 91.7823 15.46C92.3957 15.78 93.0623 15.94 93.7823 15.94Z" fill="black"/>
</svg>
